<svg  viewBox="0 0 408 371">
<path d="M106.076 144.049C108.588 142.902 109.695 139.937 108.549 137.424C107.402 134.912 104.437 133.805 101.924 134.951L106.076 144.049ZM400.799 189.127L398.849 184.523L400.799 189.127ZM400.9 183.647L403.018 179.118L400.9 183.647ZM202.83 272.004L204.78 267.4L202.83 272.004ZM205.17 272.004L203.22 267.4L205.17 272.004ZM7.20461 183.669L5.12895 179.12L7.20461 183.669ZM101.924 134.951L5.12895 179.12L9.28028 188.218L106.076 144.049L101.924 134.951ZM5.32934 193.764L200.879 276.608L204.78 267.4L9.23018 184.556L5.32934 193.764ZM207.121 276.608L402.75 193.731L398.849 184.523L203.22 267.4L207.121 276.608ZM403.018 179.118L308.618 134.971L304.382 144.029L398.782 188.176L403.018 179.118ZM402.75 193.731C409.126 191.029 409.291 182.052 403.018 179.118L398.782 188.176C397.213 187.443 397.254 185.198 398.849 184.523L402.75 193.731ZM200.879 276.608C202.874 277.453 205.126 277.453 207.121 276.608L203.22 267.4C203.718 267.189 204.282 267.189 204.78 267.4L200.879 276.608ZM5.12895 179.12C-1.20387 182.01 -1.0802 191.049 5.32934 193.764L9.23018 184.556C10.8326 185.235 10.8635 187.495 9.28028 188.218L5.12895 179.12Z" />
<path d="M104.5 140L203.797 96.5268C204.564 96.191 205.436 96.191 206.203 96.5268L305.5 140"  strokeWidth="10" strokeDasharray="20 20"/>
<rect x="105" y="5" width="199" height="361" rx="20" strokeWidth="10"/>
<path d="M187 30H222" strokeWidth="10" strokeLinecap="round"/>
<path d="M275 30H277" strokeWidth="10" strokeLinecap="round"/>
<path d="M187 339H222" strokeWidth="10" strokeLinecap="round"/>
<path d="M155.267 155.703L203.261 134.059C204.048 133.704 204.951 133.705 205.737 134.064L253.243 155.7C254.313 156.187 255 157.255 255 158.43V212.012C255 213.217 254.279 214.305 253.169 214.775L204.198 235.493C203.434 235.816 202.57 235.809 201.811 235.472L155.282 214.792C154.198 214.31 153.5 213.236 153.5 212.05V158.438C153.5 157.258 154.191 156.188 155.267 155.703Z" strokeWidth="10"/>
<path d="M153.5 157L202.848 177.521C203.585 177.828 204.415 177.828 205.152 177.521L254.5 157"  strokeWidth="10"/>
<path d="M204 178V236"  strokeWidth="10"/>
</svg>
